<svg xmlns="http://www.w3.org/2000/svg" viewBox="0 0 360.92 94.69"><path fill="#00548F" d="M0 39.84V1.9h7.44v37.94H0zm18.36-23.9h.1c1.8-2.44 5.22-3.85 8.34-3.85 3.32 0 6.17 1.35 7.75 3.85 2.22-2.17 5.65-3.8 8.77-3.85 5.95-.06 9.07 3.69 9.17 9.92v17.78h-7.02V23.3c0-3.14-1.05-6.4-4.53-6.4-3.38 0-5.49 2.06-5.49 6.78v16.15h-7.02V23.31c0-3.8-1.63-6.4-4.64-6.4-3.32 0-5.38 2.33-5.38 6.94v15.99H11.4v-27.1h6.97v3.2zm51.78.49c4 0 6.01 4.66 6.01 9.32 0 4.77-1.58 10.4-6.27 10.4-3.8 0-6.5-3.84-6.5-9.53 0-6.24 2.33-10.2 6.76-10.2zm-6.75-3.7h-7.02V53.4h7.02V36.48c1.95 2.39 4.7 4 7.9 4 7.55 0 12.3-7.63 12.3-14.79 0-5.96-3.37-13.6-11.65-13.6-3.17 0-6.6 1.63-8.45 4.39h-.1v-3.74zm30.26 10.3c-.06-3.62 1.74-6.93 5.75-6.93 3.48 0 4.9 2.82 4.64 6.94h-10.4zm17 3.9c.51-8.07-2.92-14.84-11.15-14.84-7.54 0-13.45 5.31-13.45 13.66 0 8.94 5.96 14.74 13.93 14.74 3 0 6.75-.87 10.34-3.03l-2-3.8a12.93 12.93 0 0 1-7.08 2.17c-4.37 0-7.85-3.8-7.7-8.9h17.1zm10.34-9.42h.1l1.43-2.11c.84-1.15 2.37-3.31 4.53-3.31 1.59 0 3.27.87 4.75 2.44l-2.63 4.99a6.25 6.25 0 0 0-3.33-.93c-2.42 0-4.8 2-4.8 7.86v13.39h-7.02v-27.1H121v4.77zm20.08-4.77v27.1h-7.02v-27.1h7.02zm-7.7-8.13c0-2.06 1.68-4.17 4.06-4.17a4.35 4.35 0 0 1 4.33 4.17c0 2.33-1.64 4.55-4.23 4.55-2.48 0-4.16-2.22-4.16-4.55zm26.75 19.51c.53 7.97-3.1 11.55-5.9 11.55-1.7 0-3.17-1.63-3.17-4.02 0-3.08 1.74-5.14 5.17-6.23l3.9-1.3zm-.1 11.76c0 1.47.16 3.04.68 3.96h7.44c-.84-1.9-1.1-4.45-1.1-6.61V22.17c0-8.46-5.97-10.08-10.82-10.08-3.64 0-6.86.92-10.13 3.69l2.27 3.41a10 10 0 0 1 6.97-2.76 4.8 4.8 0 0 1 4.8 4.06l-6.23 1.9c-6.12 1.78-9.76 4.71-9.76 9.86 0 4.99 3.43 8.24 7.54 8.24 2.43 0 4.8-1.68 6.76-3.25l1.58-1.36zm11.4 3.96V0h7v39.84h-7zm53.31-31.06a17.3 17.3 0 0 0-7.65-2.11c-7.6 0-13.08 5.47-13.08 14.1 0 8.99 6.07 14.3 13.29 14.3 2.85 0 5.49-.81 7.44-1.9l2.06 4.72a21.06 21.06 0 0 1-9.81 2.6c-12.83 0-20.9-8.67-20.9-19.83 0-10.36 8.02-19.41 21-19.41 3.85 0 7.44 1.41 9.97 2.93l-2.32 4.6z"/><path fill="#00548F" d="M240.71 36.48c-5.01 0-6.38-5.74-6.38-10.51 0-4.5 1.58-9.87 6.38-9.87 4.9 0 6.44 5.37 6.44 9.87 0 4.76-1.32 10.5-6.44 10.5zm0 4c8.29 0 13.87-6.11 13.87-14.51 0-8.79-6.75-13.88-13.87-13.88-7.07 0-13.82 5.1-13.82 13.88 0 8.4 5.6 14.52 13.82 14.52zm16.9-.64V0h7.02v39.84h-7.02zm11.44 0V0h7.01v39.84h-7zm17.53-16.8c-.06-3.63 1.74-6.94 5.75-6.94 3.48 0 4.9 2.82 4.64 6.93h-10.39zm16.99 3.9c.53-8.08-2.9-14.85-11.13-14.85-7.55 0-13.46 5.31-13.46 13.66 0 8.94 5.96 14.74 13.93 14.74 3 0 6.75-.87 10.34-3.04l-2-3.79a12.93 12.93 0 0 1-7.07 2.17c-4.38 0-7.87-3.8-7.7-8.9h17.09zm40.31-3.9c-.05-3.63 1.74-6.94 5.75-6.94 3.48 0 4.91 2.82 4.65 6.93h-10.4zm17 3.9c.52-8.08-2.9-14.85-11.14-14.85-7.55 0-13.45 5.31-13.45 13.66 0 8.94 5.95 14.74 13.93 14.74 3 0 6.75-.87 10.34-3.04l-2-3.79a12.93 12.93 0 0 1-7.08 2.17c-4.38 0-7.86-3.8-7.7-8.9h17.1zm-40.91-10.51c4.22 0 6.38 4.39 6.38 9.1 0 5.42-2 10.62-6.7 10.62-4.06 0-6.06-5.1-6.06-10.35 0-5.26 1.84-9.37 6.38-9.37zm13.4-3.7h-7.02v3.31h-.1c-1.48-2.43-4.65-3.95-7.87-3.95-7.17 0-12.24 6.83-12.24 13.87 0 8.68 4.6 14.53 11.61 14.53 4.02 0 6.76-2.28 8.5-4.56h.1v3.58c0 6.29-3.58 9.22-8.23 9.22-3.59 0-6.6-.7-9.18-2.33l-1.37 4.44a24.63 24.63 0 0 0 11.08 2.55c7.86 0 14.72-3.96 14.72-15.99V12.74z"/><path fill="#549DC5" d="M0 56.1h7.5v32.84h15.77v5.1H0V56.1zm64.44 14.04c2.5-2.6 5.99-3.85 9.49-3.85 6.5 0 9.6 3.47 9.6 10.3v17.45H76.5V77.4c0-3.8-1.73-6.28-5.56-6.28-3.61 0-6.44 2.32-6.44 6.77v16.15h-7.05v-27.1h7v3.2zm37.36.49c4.44 0 6.72 4.39 6.72 9.1 0 5.43-2.11 10.63-7.06 10.63-4.27 0-6.38-5.1-6.38-10.36s1.95-9.37 6.72-9.37zm6.72 23.41h7.05V54.21h-7.05v15.88h-.12c-1.66-2.4-4.88-3.8-8.49-3.8-7.44 0-12.66 6.83-12.66 13.87 0 8.67 4.83 14.53 12.1 14.53 4.34 0 7.22-2.28 9.05-4.56h.12v3.91zm25.37-3.36c-5.27 0-6.72-5.75-6.72-10.52 0-4.5 1.67-9.86 6.72-9.86 5.17 0 6.78 5.37 6.78 9.87 0 4.76-1.39 10.5-6.78 10.5zm0 4c8.72 0 14.6-6.12 14.6-14.52 0-8.77-7.1-13.87-14.6-13.87-7.44 0-14.55 5.1-14.55 13.88 0 8.4 5.9 14.52 14.55 14.52zm25.43-24.54c2.5-2.6 6-3.85 9.5-3.85 6.5 0 9.6 3.47 9.6 10.3v17.45h-7.05V77.4c0-3.8-1.72-6.28-5.55-6.28-3.6 0-6.44 2.32-6.44 6.77v16.15h-7.05v-27.1h7v3.2zM38.88 90.68c-5.28 0-6.72-5.75-6.72-10.52 0-4.5 1.67-9.86 6.72-9.86 5.17 0 6.78 5.37 6.78 9.87 0 4.76-1.4 10.5-6.78 10.5zm0 4c8.72 0 14.6-6.12 14.6-14.52 0-8.77-7.1-13.87-14.6-13.87-7.44 0-14.55 5.1-14.55 13.88 0 8.4 5.89 14.52 14.55 14.52z"/></svg>
