<svg xmlns="http://www.w3.org/2000/svg" xml:space="preserve" width="360.923" height="94.688"><path fill="#00548F" d="M0 39.84V1.898h7.44V39.84H0zm18.357-23.904h.105c1.794-2.439 5.222-3.848 8.337-3.848 3.32 0 6.168 1.355 7.754 3.848 2.219-2.166 5.646-3.793 8.762-3.848 5.955-.055 9.074 3.688 9.18 9.918v17.779h-7.021V23.309c0-3.143-1.055-6.395-4.533-6.395-3.377 0-5.486 2.057-5.486 6.771V39.84h-7.02V23.309c0-3.793-1.635-6.395-4.643-6.395-3.326 0-5.38 2.328-5.38 6.936v15.99h-7.02V12.738h6.965v3.198zm51.785.49c4.006 0 6.012 4.662 6.012 9.322 0 4.77-1.58 10.406-6.273 10.406-3.801 0-6.492-3.848-6.492-9.539-.001-6.234 2.321-10.189 6.753-10.189zm-6.754-3.688h-7.014v40.654h7.014V36.479c1.955 2.389 4.693 4.01 7.91 4.01 7.547 0 12.295-7.639 12.295-14.795 0-5.963-3.374-13.605-11.657-13.605-3.166 0-6.594 1.627-8.443 4.389h-.105v-3.74zm30.26 10.297c-.053-3.625 1.738-6.936 5.75-6.936 3.48 0 4.906 2.818 4.641 6.936H93.648zm16.993 3.903c.521-8.074-2.908-14.85-11.137-14.85-7.545 0-13.453 5.313-13.453 13.66 0 8.945 5.959 14.74 13.928 14.74 3.006 0 6.752-.867 10.34-3.033l-2.006-3.793c-1.738 1.244-4.486 2.17-7.068 2.17-4.379 0-7.859-3.797-7.699-8.895h17.095zm10.349-9.43h.105l1.422-2.113c.844-1.141 2.375-3.307 4.537-3.307 1.584 0 3.27.869 4.75 2.438l-2.637 4.99c-1.16-.598-1.9-.924-3.324-.924-2.426 0-4.803 2.006-4.803 7.859V39.84h-7.018V12.738h6.967v4.77zm20.076-4.77V39.84h-7.014V12.738h7.014zm-7.699-8.127c0-2.064 1.688-4.174 4.063-4.174 2.426 0 4.326 2.059 4.326 4.174 0 2.328-1.639 4.549-4.225 4.549-2.476 0-4.164-2.221-4.164-4.549zm26.756 19.51c.527 7.965-3.109 11.545-5.906 11.545-1.688 0-3.17-1.625-3.17-4.012 0-3.088 1.744-5.146 5.172-6.234l3.904-1.299zm-.103 11.762c0 1.463.156 3.035.682 3.957h7.441c-.846-1.898-1.109-4.445-1.109-6.613V22.172c0-8.457-5.959-10.084-10.814-10.084-3.639 0-6.855.922-10.131 3.688l2.268 3.414c1.85-1.627 3.961-2.764 6.971-2.764 2.268 0 4.428 1.572 4.797 4.064l-6.227 1.896c-6.121 1.787-9.76 4.715-9.76 9.867 0 4.982 3.428 8.234 7.543 8.234 2.428 0 4.807-1.678 6.758-3.252l1.581-1.352zm11.394 3.957V0h7.013v39.84h-7.013zm53.319-31.059c-1.799-.977-4.803-2.113-7.656-2.113-7.594 0-13.078 5.475-13.078 14.094 0 8.998 6.068 14.309 13.291 14.309 2.852 0 5.488-.814 7.443-1.898l2.057 4.717c-2.268 1.355-6.225 2.6-9.814 2.6-12.824 0-20.895-8.672-20.895-19.834 0-10.354 8.023-19.406 20.996-19.406 3.855 0 7.445 1.41 9.973 2.928l-2.317 4.603z"/><path fill="#00548F" d="M240.711 36.479c-5.014 0-6.383-5.744-6.383-10.514 0-4.498 1.58-9.865 6.383-9.865 4.906 0 6.434 5.367 6.434 9.865 0 4.769-1.316 10.514-6.434 10.514zm0 4.009c8.287 0 13.871-6.121 13.871-14.523 0-8.781-6.748-13.877-13.871-13.877-7.072 0-13.822 5.096-13.822 13.877 0 8.402 5.592 14.523 13.822 14.523zm16.897-.648V0h7.021v39.84h-7.021zm11.443 0V0h7.014v39.84h-7.014zm17.532-16.805c-.059-3.625 1.736-6.936 5.744-6.936 3.486 0 4.908 2.818 4.646 6.936h-10.39zm16.984 3.903c.529-8.074-2.9-14.85-11.131-14.85-7.543 0-13.459 5.313-13.459 13.66 0 8.945 5.963 14.74 13.934 14.74 3.004 0 6.75-.867 10.342-3.033l-2.006-3.793c-1.738 1.244-4.486 2.17-7.07 2.17-4.377 0-7.863-3.797-7.703-8.895h17.093zm40.316-3.903c-.051-3.625 1.74-6.936 5.752-6.936 3.479 0 4.908 2.818 4.643 6.936h-10.395zm16.989 3.903c.525-8.074-2.9-14.85-11.131-14.85-7.547 0-13.455 5.313-13.455 13.66 0 8.945 5.959 14.74 13.93 14.74 3.008 0 6.754-.867 10.34-3.033l-2.004-3.793c-1.742 1.244-4.484 2.17-7.07 2.17-4.381 0-7.857-3.797-7.703-8.895h17.093zm-40.903-10.512c4.223 0 6.383 4.391 6.383 9.105 0 5.42-2.006 10.623-6.703 10.623-4.061 0-6.063-5.096-6.063-10.354 0-5.255 1.846-9.374 6.383-9.374zm13.401-3.688h-7.018v3.307h-.104c-1.477-2.439-4.645-3.957-7.863-3.957-7.176 0-12.24 6.83-12.24 13.877 0 8.672 4.592 14.523 11.609 14.523 4.012 0 6.752-2.275 8.494-4.553h.104v3.578c0 6.287-3.586 9.215-8.232 9.215-3.586 0-6.594-.705-9.176-2.33l-1.375 4.443c3.115 1.625 7.127 2.551 11.08 2.551 7.863 0 14.721-3.959 14.721-15.99V12.738z"/><path fill="#549DC5" d="M0 56.104h7.494v32.84h15.771v5.096H0V56.104zm64.435 14.034c2.503-2.602 5.995-3.85 9.495-3.85 6.496 0 9.607 3.471 9.607 10.299V94.04h-7.051V77.401c0-3.792-1.722-6.285-5.554-6.285-3.613 0-6.442 2.327-6.442 6.771V94.04h-7.052V66.942h6.998v3.196zm37.362.492c4.444 0 6.719 4.39 6.719 9.102 0 5.423-2.106 10.623-7.053 10.623-4.273 0-6.383-5.095-6.383-10.352s1.945-9.373 6.717-9.373zm6.719 23.41h7.053V54.206h-7.053v15.881h-.111c-1.665-2.389-4.883-3.799-8.492-3.799-7.444 0-12.662 6.831-12.662 13.877 0 8.67 4.829 14.523 12.105 14.523 4.331 0 7.218-2.275 9.049-4.553h.111v3.905zm25.377-3.363c-5.271 0-6.721-5.743-6.721-10.512 0-4.497 1.664-9.863 6.721-9.863 5.167 0 6.773 5.366 6.773 9.863 0 4.769-1.384 10.512-6.773 10.512zm0 4.011c8.717 0 14.601-6.125 14.601-14.523 0-8.777-7.104-13.877-14.601-13.877-7.441 0-14.549 5.1-14.549 13.877 0 8.398 5.887 14.523 14.549 14.523zm25.431-24.55c2.5-2.602 5.997-3.85 9.493-3.85 6.497 0 9.608 3.471 9.608 10.299V94.04h-7.051V77.401c0-3.792-1.722-6.285-5.556-6.285-3.606 0-6.44 2.327-6.44 6.771V94.04h-7.052V66.942h6.997v3.196zM38.884 90.677c-5.28 0-6.72-5.743-6.72-10.512 0-4.497 1.664-9.863 6.72-9.863 5.164 0 6.774 5.366 6.774 9.863 0 4.769-1.392 10.512-6.774 10.512zm0 4.011c8.716 0 14.602-6.125 14.602-14.523 0-8.777-7.108-13.877-14.602-13.877-7.442 0-14.549 5.1-14.549 13.877 0 8.398 5.884 14.523 14.549 14.523z"/></svg>