<svg xmlns="http://www.w3.org/2000/svg" xml:space="preserve" width="400" height="436.666"><g fill-rule="evenodd" clip-rule="evenodd"><path fill="#ED3225" d="M84.474 258.819c-14.254.002-26.12-10.292-28.185-24.447-2.218-15.203 8.731-29.81 23.896-31.925 3.464-.483 6.889-.39 10.292.379.604.136.907-.009 1.215-.543 7.733-13.418 15.48-26.827 23.242-40.229.314-.544.295-.911-.043-1.457-4.783-7.73-4.768-15.472.057-23.181.309-.493.374-.841.067-1.372a23475.52 23475.52 0 0 1-23.682-41.043c-.281-.488-.552-.632-1.134-.54-14.403 2.293-28.767-7.704-31.677-22.024-3.123-15.364 6.017-29.857 21.189-33.6 15.264-3.765 31.112 6.199 34.249 21.63 1.911 9.404-.389 17.756-6.735 24.963-.472.536-.497.886-.146 1.493a14141.904 14141.904 0 0 1 23.27 40.332c.4.697.815.883 1.595.89 8.521.077 14.825 3.91 18.939 11.348.292.527.598.7 1.182.699 15.993-.015 31.985-.015 47.979.002.604.001.877-.184 1.109-.748 4.797-11.651 15.948-18.565 28.49-17.694 12.89.895 23.824 11.018 25.753 23.843 2.408 16.001-8.418 30.456-24.409 32.591-13.321 1.778-26.188-6.309-30.424-19.167-.293-.891-.631-1.192-1.6-1.189-15.514.037-31.027.032-46.541.01-.802-.001-1.233.21-1.65.954-4.165 7.414-10.525 11.164-19.042 11.16-.741-.001-1.082.238-1.423.829a17941.306 17941.306 0 0 1-23.548 40.765c-.388.669-.369 1.068.11 1.685 13.011 16.732 3.358 41.623-17.496 45.174-1.624.275-3.253.434-4.899.412zm-.095-10.48c9.864.002 17.889-7.952 17.898-17.743.01-9.937-8.037-18.037-17.892-18.012-9.813.024-17.871 8.123-17.865 17.952.007 9.792 8.041 17.801 17.859 17.803zm125.169-98.356c-.003 9.811 7.969 17.926 17.622 17.939 10.04.014 18.155-7.98 18.135-17.864-.021-9.736-8.021-17.856-17.595-17.859-10.139-.003-18.159 7.851-18.162 17.784zM104.127 66.45c.006-9.756-8.016-17.874-17.676-17.889-9.987-.014-18.061 7.929-18.081 17.79-.02 9.856 7.995 17.934 17.826 17.965 9.819.031 17.924-8.045 17.931-17.866zm37.637 83.595c0-5.323-4.25-9.605-9.543-9.617-5.32-.012-9.655 4.345-9.626 9.672.029 5.323 4.273 9.516 9.629 9.511 5.365-.006 9.541-4.192 9.54-9.566z"/><path fill="#0167A5" d="M212.226 335.77c3.563-1.64 7.226-2.182 11.036-1.846 5.741.504 11.068 2.402 16.19 4.917 7.328 3.599 14.523 7.472 22.065 10.622 6.605 2.759 13.335 5.123 20.441 6.226 4.779.74 9.545.796 14.231-.631 6.756-2.058 11.091-6.77 14.039-12.947 2.342-4.906 3.401-10.063 2.998-15.523-.339-4.584-.039-9.17.353-13.738.736-8.583 2.525-16.949 5.127-25.167 5.717-18.056 17.138-31.438 33.27-41.026 2.292-1.362 4.678-2.602 6.723-4.324 2.069-1.742 2.156-1.395.226-3.298-3.657-3.606-7.662-6.833-11.491-10.251-5.33-4.757-10.341-9.801-14.072-15.961-3.572-5.896-5.807-12.347-7.701-18.929-2.288-7.953-3.791-16.094-5.759-24.124-1.498-6.114-3.215-12.167-6.039-17.82-5.946-11.901-14.618-21.494-25.212-29.43-10.994-8.235-23.208-14.115-36.096-18.695a185.392 185.392 0 0 0-28.68-7.696c-10.795-1.981-21.693-2.909-32.684-2.53a158.816 158.816 0 0 0-38.6 6.123c-7.786 2.242-15.408 4.969-22.732 8.463-.708.339-.872-.001-1.143-.482a2411.195 2411.195 0 0 0-8.067-14.285c-.335-.588-.283-.817.339-1.129 4.007-2.007 8.159-3.668 12.326-5.303 11.303-4.433 22.953-7.605 34.914-9.643a173.856 173.856 0 0 1 31.675-2.45c16.615.231 32.743 3.332 48.592 8.126 15.287 4.623 29.867 10.821 43.312 19.525 10.361 6.708 19.602 14.679 27.229 24.438 8.438 10.799 13.927 22.959 16.913 36.31 1.799 8.039 3.186 16.162 5.125 24.169a104.17 104.17 0 0 0 3.521 11.563c2.031 5.5 5.419 10.084 9.423 14.283 4.775 5.009 10.061 9.489 14.896 14.435 1.943 1.988 3.727 4.093 4.879 6.671 2.631 5.885 1.561 11.805-2.961 16.436-2.861 2.93-6.317 4.998-9.883 6.908-4.716 2.525-9.219 5.362-13.354 8.777-8.203 6.776-13.803 15.354-17.598 25.203-3.541 9.188-5.62 18.697-6.449 28.503-.335 3.959.006 7.961-.596 11.883-1.764 11.509-6.934 20.991-17.115 27.171-5.592 3.395-11.834 4.282-18.294 3.774-8.842-.695-16.965-3.769-24.857-7.581-8.482-4.097-16.426-9.132-24.46-14.012-4.49-2.728-9.182-4.999-14.369-6.093-3.579-.755-7.13-.762-10.643.354-.303.096-.587.156-.988.034zm-85.685 83.005c-.142-2.308-.251-4.618-.431-6.923-1.117-14.28-3.651-28.243-9.007-41.622-3.771-9.422-10.026-16.858-17.777-23.194-5.865-4.795-12.189-8.943-18.493-13.119-6.376-4.225-12.434-8.838-17.93-14.177-9.064-8.806-15.756-19.216-20.828-30.72-4.759-10.794-7.919-22.043-9.403-33.75a180.61 180.61 0 0 1-1.342-17.285c-.296-9.847.332-19.635 1.721-29.373 2.257-15.822 6.255-31.13 13.503-45.484 6.07-12.021 13.638-22.987 22.771-32.876 6.122-6.628 12.757-12.698 19.829-18.297.607-.481.889-.529 1.341.21a855.035 855.035 0 0 0 8.308 13.316c.479.751.292 1.055-.325 1.527-8.484 6.494-16.242 13.757-23.079 21.979-12.367 14.873-20.723 31.755-25.323 50.532-2.637 10.758-4.404 21.641-4.893 32.71-.499 11.314.055 22.578 2.235 33.711 2.845 14.523 7.979 28.128 16.791 40.153 5.814 7.934 12.982 14.523 20.777 20.468 6.286 4.794 12.633 9.518 18.438 14.906 5.983 5.555 11.327 11.633 14.818 19.102 2.788 5.965 4.625 12.262 6.018 18.688 2.349 10.835 2.932 21.815 2.687 32.862-.049 2.217-.142 4.434-.215 6.65a6.187 6.187 0 0 1-.191.006z"/><path fill="#F8A01C" d="M294.262 206.626c-9.962-.033-17.657-6.225-19.23-14.714-1.151-6.214.695-11.628 5.124-16.151.622-.635 1.2-1.313 1.814-1.956 2.433-2.544 2.933-5.529 2.078-8.851-.41-1.596-.976-3.132-1.645-4.631-.519-1.162-.546-2.259.368-3.235.916-.979 2.012-1.025 3.205-.571 5.701 2.169 11.061 4.913 15.553 9.143 5.137 4.837 7.684 10.876 8.299 17.809.435 4.9-.152 9.65-2.484 14.045-3.047 5.739-7.726 9.001-13.082 9.112zm-11.261-25.424c.928-.51 1.833-1.065 2.786-1.522 6.322-3.034 12.724-1.958 17.724 2.944.143.14.227.442.578.314-.133-4.253-1.582-8.013-4.28-11.279-2.841-3.44-6.426-5.894-10.519-7.881.021.315.012.453.041.582 1.13 5.046-.009 9.469-3.575 13.257-1.027 1.091-2.112 2.142-2.896 3.442l-.095.211.236-.068z"/><path fill="#0167A5" d="m256.094 230.538 18.215-25.001c.324.206.169.507.169.743.009 12.188-.001 24.377.028 36.565.002.835-.25 1.013-1.025.991a96.687 96.687 0 0 0-5.648.001c-.75.021-.978-.153-.971-.945.041-4.724.021-9.448.021-14.52l-10.789 14.876-10.642-14.644c-.318.304-.171.66-.172.965-.011 4.417-.029 8.833.012 13.249.008.813-.211 1.045-1.021 1.02-1.915-.06-3.834-.037-5.751-.009-.575.009-.836-.072-.835-.761.022-12.46.017-24.92.192-37.493l18.217 24.963zm-102.269 14.13-22.608-21.531c-.024.529-.055.88-.056 1.229-.003 6.096-.034 12.191.028 18.287.011 1.09-.32 1.31-1.319 1.267-1.846-.079-3.698-.036-5.547-.014-.517.006-.719-.133-.719-.688.014-12.498.011-24.996.011-37.763l22.398 21.323c.354-.384.197-.775.197-1.123.012-6.164.025-12.328-.011-18.492-.005-.816.218-1.03 1.016-1.004 1.813.061 3.632.068 5.444-.001.908-.035 1.193.183 1.189 1.153-.04 10.172-.024 20.342-.024 30.513l.001 6.844zm39.847-.849c-2.713 0-5.241-.014-7.769.01-.508.005-.622-.322-.773-.664-.638-1.438-1.295-2.867-1.899-4.318-.214-.514-.485-.721-1.063-.717-3.768.026-7.535.03-11.302-.003-.634-.006-.908.243-1.134.78-.608 1.449-1.271 2.877-1.895 4.32-.162.374-.334.607-.811.604-2.498-.024-4.996-.012-7.682-.012l17.152-38.389 17.176 38.389zm-17.151-20.236-3.424 7.842c2.098 0 4.035-.03 5.971.016.796.019.736-.27.492-.827-.998-2.275-1.973-4.56-3.039-7.031z"/><path fill="#0268A5" d="M303.634 209.069c0 11.551-.003 22.771.011 33.99 0 .563-.132.782-.736.773a185.84 185.84 0 0 0-6.157 0c-.603.011-.734-.2-.733-.764.015-9.817.011-19.635.011-29.453 0-.339-.059-.691.415-.805 2.617-.622 5.014-1.703 7.189-3.741zm-22.196.922c2.211 1.703 4.522 2.674 7.043 3.124.521.093.579.34.566.76-.018.616-.004 1.232-.004 1.85 0 9.007-.012 18.014.019 27.02.003.825-.162 1.128-1.048 1.097-1.949-.068-3.903-.032-5.855-.013-.489.005-.733-.073-.732-.658.015-10.991.011-21.982.011-33.18z"/><path fill="#FEFDFC" d="m283.001 181.202-.235.068.095-.211c.047.046.094.094.14.143z"/><path fill="#0167A5" d="M232.027 243.819c-2.713 0-5.241-.014-7.769.01-.508.005-.622-.322-.773-.664-.638-1.438-1.295-2.867-1.899-4.318-.214-.514-.485-.721-1.063-.717-3.768.026-7.535.03-11.302-.003-.634-.006-.908.243-1.134.78-.608 1.449-1.271 2.877-1.895 4.32-.162.374-.334.607-.811.604-2.498-.024-4.996-.012-7.682-.012l17.152-38.389c5.78 12.916 11.448 25.584 17.176 38.389zm-17.15-20.236-3.424 7.842c2.098 0 4.035-.03 5.971.016.796.019.736-.27.492-.827-.999-2.275-1.974-4.56-3.039-7.031z"/></g></svg>