<svg xmlns="http://www.w3.org/2000/svg" width="24" height="24" fill="currentColor" aria-label="Clamphook logo" color="rgb(57 106 252)"><g clip-path="url(#a)"><path d="M5.412 20.65C2.062 18.716 0 15.07 0 11.163c0-3.87 2.062-7.516 5.412-9.488L6.92 4.316C4.49 5.73 3.019 8.372 3.019 11.162A7.97 7.97 0 0 0 6.92 18.01l-1.51 2.64zm5.411 1.489v-3.051a7.958 7.958 0 0 0 3.902-1.042c2.43-1.414 3.903-4.056 3.903-6.847a7.97 7.97 0 0 0-3.903-6.846c-1.178-.707-2.54-1.042-3.902-1.042V.223c1.915 0 3.792.52 5.412 1.45 3.35 1.936 5.411 5.582 5.411 9.49 0 3.906-2.061 7.515-5.411 9.488a10.576 10.576 0 0 1-5.412 1.488z"/><path d="M10.823 9.489c.92 0 1.656.744 1.656 1.674 0 .93-.736 1.674-1.656 1.674-.92 0-1.657-.744-1.657-1.674 0-.93.736-1.674 1.657-1.674zm0-3.014c-2.577 0-4.676 2.12-4.676 4.725 0 2.605 2.099 4.726 4.676 4.726s4.675-2.158 4.675-4.763a4.675 4.675 0 0 0-4.675-4.688z"/></g><defs><clipPath id="a"><path fill="#fff" d="M0 0h152.516v24H0z"/></clipPath></defs></svg>