<svg xmlns="http://www.w3.org/2000/svg" viewBox="0 0 400 436.67"><path fill="#ED3225" d="M84.47 258.82a28.34 28.34 0 0 1-28.18-24.45c-2.22-15.2 8.73-29.8 23.9-31.92 3.46-.49 6.88-.4 10.29.38.6.13.9-.01 1.21-.55 7.74-13.42 15.48-26.82 23.24-40.23.32-.54.3-.9-.04-1.45-4.78-7.73-4.77-15.48.06-23.18.3-.5.37-.85.07-1.38A23475.52 23475.52 0 0 1 91.33 95c-.28-.49-.55-.63-1.13-.54-14.4 2.3-28.77-7.7-31.68-22.02-3.12-15.37 6.02-29.86 21.2-33.6 15.25-3.77 31.1 6.2 34.24 21.63 1.91 9.4-.39 17.75-6.73 24.96-.48.54-.5.89-.15 1.5a14141.9 14141.9 0 0 1 23.27 40.32c.4.7.81.89 1.6.9 8.52.07 14.82 3.9 18.93 11.34.3.53.6.7 1.19.7h47.97c.6 0 .88-.18 1.11-.74a28.22 28.22 0 0 1 28.5-17.7c12.88.9 23.82 11.02 25.75 23.84a28.3 28.3 0 0 1-24.41 32.6 28.25 28.25 0 0 1-30.43-19.17c-.29-.9-.63-1.2-1.6-1.19-15.51.04-31.02.03-46.54.01-.8 0-1.23.21-1.65.95-4.16 7.42-10.52 11.17-19.04 11.16-.74 0-1.08.24-1.42.83a17941.3 17941.3 0 0 1-23.55 40.77c-.39.67-.37 1.07.1 1.68 13.02 16.74 3.37 41.63-17.49 45.18-1.62.27-3.25.43-4.9.4zm-.1-10.48c9.87 0 17.9-7.95 17.9-17.74a17.95 17.95 0 0 0-17.88-18.02 18.01 18.01 0 0 0-17.87 17.96c0 9.79 8.04 17.8 17.86 17.8zm125.18-98.36c0 9.81 7.97 17.93 17.62 17.94 10.04.02 18.16-7.98 18.14-17.86-.03-9.74-8.03-17.86-17.6-17.86-10.14 0-18.16 7.85-18.16 17.78zM104.13 66.45c0-9.76-8.02-17.87-17.68-17.89a17.92 17.92 0 0 0-18.08 17.8c-.02 9.85 8 17.93 17.83 17.96a17.97 17.97 0 0 0 17.93-17.87zm37.63 83.6a9.56 9.56 0 0 0-9.54-9.62 9.63 9.63 0 0 0-9.62 9.67 9.52 9.52 0 0 0 9.62 9.51c5.37 0 9.54-4.2 9.54-9.56z"/><path fill="#0167A5" d="M212.23 335.77a21.35 21.35 0 0 1 11.03-1.85c5.74.5 11.07 2.4 16.2 4.92 7.32 3.6 14.51 7.47 22.06 10.62 6.6 2.76 13.33 5.13 20.44 6.23 4.78.74 9.54.8 14.23-.63 6.75-2.06 11.09-6.77 14.04-12.95a30.28 30.28 0 0 0 3-15.52c-.34-4.59-.04-9.17.35-13.74a116 116 0 0 1 5.13-25.17c5.71-18.05 17.13-31.44 33.27-41.02 2.29-1.37 4.67-2.6 6.72-4.33 2.07-1.74 2.15-1.4.22-3.3-3.65-3.6-7.66-6.83-11.49-10.25-5.33-4.75-10.34-9.8-14.07-15.96-3.57-5.9-5.8-12.34-7.7-18.93-2.29-7.95-3.79-16.09-5.76-24.12-1.5-6.11-3.21-12.17-6.04-17.82-5.94-11.9-14.62-21.5-25.2-29.43-11-8.24-23.22-14.12-36.1-18.7a185.4 185.4 0 0 0-28.69-7.7 152.29 152.29 0 0 0-32.68-2.52 158.82 158.82 0 0 0-38.6 6.12 147.21 147.21 0 0 0-22.73 8.46c-.7.34-.87 0-1.14-.48a2411.2 2411.2 0 0 0-8.07-14.28c-.34-.59-.28-.82.34-1.13 4-2 8.16-3.67 12.32-5.3 11.3-4.44 22.96-7.6 34.92-9.65a173.86 173.86 0 0 1 31.67-2.45c16.62.23 32.75 3.33 48.6 8.13 15.28 4.62 29.86 10.82 43.3 19.52 10.37 6.71 19.6 14.68 27.24 24.44 8.43 10.8 13.92 22.96 16.9 36.31 1.8 8.04 3.2 16.16 5.13 24.17a104.17 104.17 0 0 0 3.52 11.56c2.04 5.5 5.42 10.09 9.43 14.29 4.77 5 10.06 9.49 14.9 14.43 1.94 1.99 3.72 4.1 4.87 6.67 2.63 5.89 1.56 11.8-2.96 16.44-2.86 2.93-6.31 5-9.88 6.9a80.29 80.29 0 0 0-13.35 8.78c-8.2 6.78-13.8 15.36-17.6 25.2a102.86 102.86 0 0 0-6.45 28.51c-.34 3.96 0 7.96-.6 11.88-1.76 11.51-6.93 21-17.11 27.17-5.6 3.4-11.84 4.29-18.3 3.78-8.84-.7-16.96-3.77-24.85-7.58-8.49-4.1-16.43-9.14-24.46-14.02-4.5-2.72-9.19-5-14.37-6.09a20.54 20.54 0 0 0-10.65.36c-.3.1-.58.15-.98.03zm-85.69 83c-.14-2.3-.25-4.61-.43-6.92-1.12-14.28-3.65-28.24-9-41.62-3.78-9.42-10.03-16.86-17.78-23.2-5.87-4.79-12.2-8.94-18.5-13.11a122.94 122.94 0 0 1-17.93-14.18c-9.06-8.8-15.75-19.22-20.82-30.72a120.98 120.98 0 0 1-9.4-33.75 180.61 180.61 0 0 1-1.35-17.29c-.3-9.84.33-19.63 1.72-29.37 2.26-15.82 6.26-31.13 13.5-45.48a143.55 143.55 0 0 1 22.78-32.88 173.53 173.53 0 0 1 19.82-18.3c.61-.48.9-.52 1.34.21a855.03 855.03 0 0 0 8.31 13.32c.48.75.3 1.06-.32 1.53a142.28 142.28 0 0 0-23.08 21.98 124.13 124.13 0 0 0-25.32 50.53 168.41 168.41 0 0 0-4.9 32.7c-.5 11.32.06 22.59 2.24 33.72 2.84 14.52 7.98 28.13 16.79 40.15 5.81 7.94 12.98 14.53 20.78 20.47 6.28 4.8 12.63 9.52 18.43 14.9 5.99 5.56 11.33 11.64 14.82 19.1 2.79 5.97 4.63 12.27 6.02 18.7 2.35 10.83 2.93 21.81 2.69 32.86-.05 2.22-.15 4.43-.22 6.65a6.19 6.19 0 0 1-.19 0z"/><path fill="#F8A01C" d="M294.26 206.63c-9.96-.04-17.65-6.23-19.23-14.72-1.15-6.21.7-11.63 5.13-16.15.62-.63 1.2-1.31 1.81-1.95 2.43-2.55 2.93-5.53 2.08-8.86-.41-1.6-.98-3.13-1.65-4.63-.52-1.16-.54-2.26.37-3.23.92-.98 2.01-1.03 3.2-.57 5.7 2.17 11.07 4.91 15.56 9.14 5.14 4.84 7.68 10.88 8.3 17.8.43 4.9-.15 9.66-2.49 14.05-3.04 5.74-7.72 9-13.08 9.12zM283 181.2c.93-.5 1.83-1.06 2.79-1.52 6.32-3.03 12.72-1.96 17.72 2.94.14.14.23.45.58.32a18.17 18.17 0 0 0-4.28-11.28c-2.84-3.44-6.43-5.9-10.52-7.88.02.31.01.45.04.58 1.13 5.05 0 9.47-3.57 13.26-1.03 1.09-2.12 2.14-2.9 3.44l-.1.21.24-.07z"/><path fill="#0167A5" d="m256.1 230.54 18.2-25c.33.2.18.5.18.74 0 12.19 0 24.38.03 36.56 0 .84-.25 1.02-1.03 1a96.69 96.69 0 0 0-5.65 0c-.75.02-.98-.16-.97-.95.04-4.72.02-9.45.02-14.52l-10.79 14.88-10.64-14.65c-.32.3-.17.66-.17.97-.01 4.42-.03 8.83.01 13.25.01.81-.2 1.04-1.02 1.02a125.3 125.3 0 0 0-5.75-.01c-.57 0-.84-.07-.83-.76.02-12.46.01-24.92.19-37.5l18.21 24.97zm-102.28 14.13-22.6-21.53c-.03.53-.06.88-.06 1.23 0 6.1-.03 12.19.03 18.28.01 1.1-.32 1.31-1.32 1.27-1.85-.08-3.7-.04-5.55-.01-.51 0-.72-.14-.72-.7.02-12.49.01-24.99.01-37.75l22.4 21.32c.36-.39.2-.78.2-1.12.01-6.17.02-12.33-.01-18.5 0-.81.22-1.03 1.01-1 1.82.06 3.64.07 5.45 0 .9-.04 1.2.18 1.19 1.15-.04 10.17-.03 20.34-.03 30.51v6.85zm39.85-.85h-7.77c-.5.01-.62-.31-.77-.65-.64-1.44-1.3-2.87-1.9-4.32-.21-.52-.48-.72-1.06-.72-3.77.03-7.54.03-11.3 0-.64 0-.91.24-1.14.78-.6 1.45-1.27 2.87-1.9 4.32-.15.37-.33.6-.8.6-2.5-.02-5-.01-7.69-.01l17.16-38.39 17.17 38.39zm-17.15-20.24-3.42 7.85c2.1 0 4.03-.03 5.97.01.8.02.73-.27.49-.83-1-2.27-1.97-4.56-3.04-7.03z"/><path fill="#0268A5" d="M303.63 209.07c0 11.55 0 22.77.02 33.99 0 .56-.14.78-.74.77a185.84 185.84 0 0 0-6.16 0c-.6.01-.73-.2-.73-.76l.01-29.46c0-.33-.06-.69.42-.8 2.61-.62 5-1.7 7.18-3.74zm-22.2.92a15.8 15.8 0 0 0 7.05 3.12c.52.1.58.34.57.76-.02.62 0 1.24 0 1.85 0 9.01-.02 18.02.01 27.02 0 .83-.16 1.13-1.05 1.1-1.95-.07-3.9-.03-5.85-.01-.49 0-.73-.07-.73-.66V210z"/><path fill="#FEFDFC" d="m283 181.2-.23.07.1-.21.13.14z"/><path fill="#0167A5" d="M232.03 243.82c-2.72 0-5.24-.02-7.77 0-.51.01-.62-.31-.78-.66-.63-1.43-1.29-2.86-1.9-4.31-.2-.52-.48-.72-1.06-.72-3.77.03-7.53.03-11.3 0-.63 0-.9.24-1.13.78-.61 1.45-1.27 2.87-1.9 4.32-.16.37-.33.6-.8.6-2.5-.02-5-.01-7.7-.01l17.16-38.39 17.18 38.39zm-17.15-20.24-3.43 7.84c2.1 0 4.04-.02 5.97.02.8.02.74-.27.5-.83-1-2.27-1.98-4.56-3.04-7.03z"/></svg>
