<svg xmlns="http://www.w3.org/2000/svg" fill="currentColor" color="#034ea2" viewBox="0 0 4501 3001"><path d="M2963.5 703.1c-89.1 1.9-189.5 7.6-282.5 15.9-614.8 55.5-1259.3 238.6-1716.5 487.8-297.4 162.1-493.6 338.5-562.6 505.6-41.5 100.5-34.3 197 21 280.6 142.9 216.1 604.9 330.5 1217.6 301.5 417-19.8 886.1-108.2 1291-243.3l47-15.7 94-.5 93.9-.5 11.5-38.7 11.4-38.6 22.6-9.3c12.4-5.1 35-14.6 50-21.1 15.1-6.4 27.6-11.6 27.7-11.5.1.1-7.8 27-17.5 59.7l-17.7 59.5 126 .3c69.2.1 126.1 0 126.4-.2.2-.3 18.5-60.8 40.6-134.5l40.1-134 22.5-13.2c100.1-58.6 197.7-126.9 270-188.9 36.5-31.3 77.3-70.7 102.1-98.5 87.4-97.9 133.7-188.2 142-276.9 1.5-15.9.6-51.2-1.6-64.9-6.8-43.1-20.9-79-45-115.2-29.9-44.9-68.1-81.3-124-118.1-196.5-129.4-552.1-196.7-990-187.3zm22 85.9c119 4.3 220.6 13.9 318.3 30 142.4 23.6 257.8 58 352.2 105.1 66.8 33.4 114.6 68.1 153.7 111.8 37 41.4 59.9 88.8 68 141.1 2.7 17.3 2.4 54.6-.5 73.7-12 77.3-55.1 157.2-128.9 239.1-14.6 16.1-52.8 54.1-70.3 69.8-19.1 17.2-37.2 32.5-37.7 32-.3-.3 117.3-394.9 120.2-403.4.4-1-25.2-1.2-127.1-1l-127.6.3-90.4 304.5c-49.7 167.5-90.8 305.5-91.3 306.6-.5 1.3-5.5 4.5-11.8 7.9-17.1 9.1-80.2 41.1-86.5 43.9l-5.6 2.5 2.3-7.7c1.3-4.2 45.6-153.5 98.5-331.7 52.8-178.2 96.3-324.6 96.5-325.3.4-1-22.2-1.2-122.3-.9-133 .3-127.2.1-149.7 5.8-24.1 6.2-52.5 20.3-75 37.2-19 14.4-27.5 24.4-114.5 135.1-72.8 92.7-82.5 104.6-83.1 102.5-.5-1.3-9.2-46.1-19.4-99.4-10.3-53.4-19.5-99.7-20.6-102.9-4.8-14.3-13.8-27.8-27.1-40.9-18.6-18.3-41.2-29.6-70.3-35.4-8.4-1.7-18.2-1.8-142.4-1.8h-133.3L2334.4 1609c-69 231.8-125.7 422.5-126 423.8l-.6 2.2h249.1l2.5-8.2c1.4-4.6 39.7-133.2 85.1-285.8 99.3-333.7 87.6-295.3 88.7-291 .9 3.8 75.8 399.5 75.8 400.4 0 .3 12.5.6 27.8.6h27.7l161-197c88.5-108.3 161-196.8 161.1-196.7.3.3-155.3 518.7-155.8 519.1-.1.2-10.4 4-22.8 8.6-384.3 141.3-826.2 236.1-1237 265.5-102.9 7.3-189.4 10.1-289.5 9.2-80.4-.7-130.7-2.7-197-7.7-194.5-14.8-359.4-48.6-488-100-135.3-54.1-226.3-127.2-265.2-213.1a258.49 258.49 0 0 1-20.9-74.9c-2-16.5-1.5-50.8 1.1-67 12-77 50.9-150.5 123.9-234 22.6-25.9 70.3-71.9 105.1-101.5 209.7-178.1 553.6-348.1 953.5-471.4 373.5-115.1 775.6-185.2 1147.9-200.2 72-2.9 178.2-3.3 243.6-.9z"/><path d="M1913.9 1188.1c-78.1 3.1-133.8 15.8-187.1 42.5-46 23-88.9 59.9-123.5 105.9-20.5 27.3-54.4 82.7-79.6 130.2-10.5 19.6-11.5 23.1-7.3 25.8 7.7 5 16 2.4 24.6-7.8 13.9-16.5 37-33.8 62.5-46.9 13.4-6.9 30.4-14.2 31.1-13.5.2.2-1.2 6.2-3.1 13.3-8.1 29-11.6 63.1-9.6 91.4 4 55.4 21 99 51.1 130.3 36 37.6 81.1 51.1 192.5 57.7 9.4.6 35.2 1.3 57.5 1.6 22.3.2 44.8.9 50 1.5 36.1 4 47.2 23.5 35.3 61.8-3.3 10.6-10.4 21.4-18.1 27.6-14.6 11.7-40.6 20.4-72 24-27.8 3.2-49.5 3.5-224.8 3.5H1517v71.2c0 39.2.3 83.8.7 99.1l.6 27.9 175.1-.5c174.6-.4 187-.7 231.6-4.2 63-5.1 103.8-14.3 136.9-31 62.1-31.1 120.1-103.6 152.6-190.4 21.6-57.6 28.5-115.5 19.4-160.6-5.7-28.3-16.9-48.9-36.7-67.7-27.4-25.9-63.7-39.8-121.7-46.2-28.6-3.2-40.5-3.7-105.5-4.6-41.2-.5-69.7-1.3-75-2-11.2-1.6-23.4-6.1-32.3-11.9-23.3-15.2-30-42.1-17.2-69 9.2-19.2 22.6-31.9 42.9-40.4 11.4-4.8 29.1-10.4 40.6-13 9.4-2.1 10.5-2.1 198.1-2.4l188.6-.3 30.1-101.3c16.6-55.7 30.2-101.6 30.2-102 0-.9-438.1-.6-462.1.4zm-732.4 3.4c-38.5 7.1-74.2 28.1-111.5 65.5-22.6 22.6-47.2 53.7-64.6 81.7-7.9 12.7-413.4 695.2-413.4 695.8 0 .3 59.3.5 131.8.5h131.8l50.4-89.5 50.5-89.5H1214v179h232v-845l-128.7.1c-100.8.1-130.3.4-135.8 1.4zm36.2 511.2c-.2.2-39.8.2-88 .1l-87.7-.3 87.8-158 87.7-157.9.3 157.9c.1 86.8.1 158-.1 158.2z"/></svg>