<svg xmlns="http://www.w3.org/2000/svg" viewBox="0 0 4059 3515"><g fill="#2374cc"><path d="M1618 69.7c-9.4 1.1-28.8 5.6-39.5 9.3-95.8 32.9-149.6 133.9-123.8 232.5 13.7 52.6 50.7 98 99.7 122.7 17.7 8.9 34.7 14.4 56.6 18.5 8.9 1.6 29.4 1.8 322 2.3 342.1.7 314.1.2 337.2 6 39.9 10.2 78.8 35.6 103.2 67.3 3 4 69 92 146.7 195.7 77.6 103.7 142.6 190.3 144.4 192.5 9.6 12 21.4 32.7 27.9 49.2 4.7 11.8 9.1 28.9 11.2 43.3 2.3 16.2 1.6 47.1-1.5 62.5-4.2 20.5-11.9 41.3-22.1 59.4-3.1 5.6-61.7 84.6-150.8 203.5-80.1 107-148.4 198.2-151.7 202.7-3.3 4.6-10.3 12.8-15.5 18.3-32.6 34.2-75.2 54.9-122.9 59.6-6.8.6-112.8 1-310.5 1-198.8 0-303.1.4-309.1 1-59.2 6.8-111.4 40.1-143.2 91.3-21.4 34.7-31.6 79.1-27.3 119.5 4.9 45.3 22.6 83.4 53.9 115.6 31.3 32.1 69.5 51.3 113.8 57.1 16.7 2.2 806 2.2 822.3 0 14.4-1.9 22.9-3.8 36.2-8.1 28.5-9.1 54.7-25.3 76.6-47.2 9-9 49.1-62 307.3-406.4 166.3-221.7 299.5-400.4 302.7-405.7 10.1-17.2 18.2-38.2 22.2-57.6 5.7-27.4 5.4-58.5-.9-84.9-4.7-19.7-14.6-43.1-24.8-58.6-8.3-12.6-591.4-789.9-599.2-798.8-13.2-15-33.7-31.3-52.1-41.5-14.4-7.9-34-15.1-53.5-19.5l-12-2.7-410-.1c-225.5 0-411.6.1-413.5.3z"/><path d="M1042.8 843.1c-27.4 2.6-58 13-81.5 27.7-61.5 38.1-96.9 107.3-91.3 178 3.8 48.3 22.8 89.9 56.2 123.2 27.5 27.4 61.4 45.4 100.2 53.2 15.2 3.1 54.5 3.3 70.1.4 14.8-2.7 30.1-7.6 49.1-15.7 113-47.9 218.2-72.8 342.4-81 39.4-2.7 106.7-1.5 151.5 2.7 103.2 9.4 211.4 36.6 301 75.6 29.1 12.6 41.2 16.4 62.2 19.4 17.7 2.4 49.4 1.5 65.8-2 50.5-10.7 93-39.4 121.6-82 47.6-70.9 42.6-165.6-12.3-231.1-43.6-52-110.5-77.3-177.8-67-19.2 2.9-34.7 7.9-63.1 20.3-7.4 3.3-22.5 9.3-33.5 13.5-171.7 65-359 81.8-541.4 48.6-72.2-13.2-144.9-35.2-214.5-64.9-12.6-5.4-27-11-32-12.4-24.2-6.7-48-8.9-72.7-6.5zm1693.5 2374c-40 3.8-74.3 33.5-84 72.6-2.5 10.1-2.2 32.3.5 42.4 13.5 49.8 66.2 79.5 117.7 66.4 17.5-4.4 31.9-13 45.1-26.7 18-18.7 26.4-41.3 25.1-67.3-1.2-23.3-9.2-41.7-25.6-58.9-20.2-21.1-48.7-31.4-78.8-28.5zM3807 2705.5c-24.4 5.2-45.5 21.8-56.1 44-2.2 4.4-4.8 11.6-5.9 15.9-2 7.8-2 10.7-2 291.6 0 281.1 0 283.8 2 291.6 6 23.4 22 43.1 43.3 53.3 13.2 6.4 19 7.6 36.2 7.6 14.3-.1 15.4-.2 24.5-3.3 12.1-4.2 21.4-9.7 30.1-17.9 11.6-11 18.7-22.5 23.1-37.9l2.3-7.9v-571l-2.3-7.8c-8.7-30-33-52.5-62.9-58.3-9.3-1.7-23.7-1.7-32.3.1zm-530.4-.4c-22 3.2-42.4 13-57.9 27.8-10 9.5-15.6 16.8-21.2 27.4-6.9 13.1-228.3 541.7-230.5 550.3-2.4 9.3-2.7 26.6-.6 36.5 5.4 25.1 24.5 47.8 48.5 57.5 16.4 6.6 38.1 7.2 55.1 1.5 20.4-6.9 37-21.1 46.3-39.7 3.7-7.4 23-58.9 56.8-152.4 34.9-96 33.9-93.5 72-196.5 16-43.5 29.7-80.1 30.4-81.5 2.6-4.9 6.2-7.3 11.7-7.7 6.3-.5 10.8 1.8 13.3 6.7.9 1.7 14.2 37.9 29.6 80.3l34.9 96.3c3.9 10.6 7 19.5 7 19.9 0 .4 13.5 38.4 29.9 84.4 29.3 81.7 53.1 144.2 59 154.5 10 17.3 26.7 30.3 47.1 36.8 6.6 2 9.5 2.3 24.5 2.3 20 0 25.1-1.1 39.5-8.2 8.1-4 10.9-6.1 19.5-14.8 7.9-7.8 11-11.7 14.2-18 10.8-21.1 12.9-42.9 5.9-63.3-3.4-10.1-221.3-534.5-225.7-543.3-19.8-39.5-65.4-63.2-109.3-56.8z"/></g><path d="M219.2 2722c-30.7 4.2-55.6 26.1-64.4 56.7l-2.3 7.8v541l2.3 7.9c6.5 22.5 21.2 40 41.8 49.7 16.5 7.8 9.2 7.4 126.9 7.4 109.9 0 115.2-.2 147.5-4.6 132.8-18.4 235.4-88.6 280.3-191.9 17.1-39.3 26-81.6 27.4-130.5 1.9-68.4-12-132.7-39.5-182-45.4-81.6-128.7-134.3-243.2-153.9-15.2-2.6-33.1-4.8-54-6.7-15.3-1.4-213.5-2.1-222.8-.9zM434 2862.5c33.1 4.1 58.6 11.4 83 23.6 48.7 24.5 78.1 64.5 88.5 120.4 7.6 41 5.1 87.1-6.6 122.8-24 73.3-87.3 114.9-185.4 121.7-8.8.7-29.9 1-47 .8l-31-.3-6.3-3.4c-7.1-3.9-11-7.8-15-15.4l-2.7-5.2v-343l2.8-5.3c4.8-9.2 13-15.8 22.4-18.2 6.2-1.5 82.5-.4 97.3 1.5zM976.1 2704c-33.8 4.7-60.4 28.4-69.3 62l-2.3 8.5v565l2.2 8.5c7.8 29.4 28.8 51.1 57.5 59.4 27.3 7.8 56.6.8 77.4-18.7 11.3-10.5 18.2-21.7 23.1-37.4l2.8-8.8.3-281c.2-188.6-.1-283.2-.8-287.7-1.6-10.3-5.5-21.5-10.6-30.2-5.3-9-17-21.3-25.7-27-15.1-9.8-37.2-14.9-54.6-12.6zm320.4 1.5c-31.4 6.9-55.3 30.7-62.6 62.2-1.8 7.9-2.1 11.3-1.6 21.6.5 13.2 2.6 21.5 7.9 32 1.6 3.2 42.9 67.1 91.7 142 48.9 74.9 89.9 138.2 91.2 140.7l2.4 4.5.6 116c.5 103.3.7 116.7 2.2 122.1 3 11.2 6.7 19.6 12.2 28 27.6 41.5 86.1 48.2 122.1 14.1 12.4-11.7 18.6-21.8 23.7-38.2 2.1-7 2.2-7.5 2.7-123.5l.5-116.5 2.6-5.5c1.4-3 44.9-69 96.6-146.5 63.3-95.1 94.7-143 96.2-147 5.3-14.2 6.9-26.4 5.2-38.9-5.6-39.8-38.1-68.5-77.4-68.6-27.1 0-51.6 13.1-65.9 35.5-2.5 3.9-30.5 52.2-62.3 107.5-38 66.2-58.9 101.6-61.2 103.6-5.6 5.2-14.2 5.1-19.4-.3-1.5-1.5-29.1-48.7-61.4-104.8-32.3-56.1-60.7-104.7-63-108-14.9-21-40-33.6-66.4-33.4-5.8 0-13.3.7-16.6 1.4zm916.4-1.5c-157.7 8.8-278.1 94.9-321.7 230-7.7 23.8-12.3 44.7-15.8 72.5-2.3 17.7-2.6 71.4-.6 90 11.2 101.3 57.1 184.7 132.7 241.5 52.3 39.3 116 63.3 186.5 70.4 50.7 5.1 102 1.4 149.2-10.8 26-6.7 49.9-15.6 72.9-27.2 35.3-17.6 59.8-35.3 87.9-63.4 18.1-18.1 28.7-30.9 41.4-49.9 45.4-67.9 65.3-155.5 56-245.9-7-68.4-31.1-129.6-70.5-179.4-10.2-12.8-36.2-38.9-48.9-49-54.9-43.6-123.8-70.2-200-77.2-20.5-1.9-51-2.6-69.1-1.6zm47.9 147.1c68.5 7.5 123.6 48.3 151 111.8 21.7 50.4 24 113.9 6.1 168.6-20.5 62.5-68.6 108.9-129.2 124.5-19.1 4.9-33.1 6.3-56.7 5.7-26-.6-41.8-3.5-63-11.4-56.5-21.1-98.3-69.4-114.4-132.4-6-23.4-7.1-33.1-7.1-63.4 0-30.2 1-38.9 7.1-62.3 20-77.2 78.7-130.2 155.4-140.6 12.8-1.7 37.6-2 50.8-.5z"/></svg>
