<svg xmlns="http://www.w3.org/2000/svg" width="216" height="330.693" viewBox="0 0 162 248.022"><path fill="#8c1515" d="M35.872 1.124 1.314 34.956v90.907l30.041 30.665h13.776c-.335.922-.775 2.345.181 3.737 1.04 1.543 2.835 1.543 3.523 1.543.805 0 1.93-.1 3.657-.335h.02s.722.64-1.476 1.362c-1.812.637-3.392 1.69-3.912 3.502-.034.134-.047.272-.08.39H1.328l-.014 46.465 34.558 33.953h90.887l34.558-33.905v-87.077L131.27 95.545h-25.478a.103.103 0 0 1-.04-.014 103.374 103.374 0 0 1-3.335-2.066l-.39-.249-.066-.04a13.748 13.748 0 0 1-1.825-1.355 10.808 10.808 0 0 1-1.396-1.309l-.1-.1a25.839 25.839 0 0 1-1.712-1.967c3.976 1.141 8.307 1.43 10.387 1.497h.248c.134 0 .272.02.39.02l.18.013c.504.035.89.118 1.141.202.269.1.507.221.725.322l1.074.402c.251.067.52.081.805.081 1.56 0 3.02-.94 3.69-2.416a4.79 4.79 0 0 0 .302-2.831l45.442.033v-50.76l-34.55-33.886H35.873z"/><path fill="#fff" d="m157.19 36.804-32.1-31.487H37.54L5.432 36.753v87.382l27.628 28.182 17.815.017c-1.996 1.795-2.617 3.657-2.936 4.563-.687 1.996-1.409 2.567 4.848 1.694 1.98-.285 5.586-1.56 7.28-2.7 1.661-1.141 4.949-.219 4.664 2.247-1.543 3.775-5.502 6.14-9.277 6.61-8.69 1.09-4.932 4.328-4.932 4.328.956.654 1.644 1.292 2.13 1.862h-4.226v-.017H5.448l-.018 40.478 32.091 31.537h87.567l32.09-31.487v-83.54L129.55 99.763h-22.327c-1.778-1.191-4.177-2.517-6.357-3.942 0-.018 0-.018-.018-.018a15.892 15.892 0 0 1-2.449-1.778 14.893 14.893 0 0 1-1.744-1.627c-1.93-2.013-3.372-4.11-3.758-5.083-.721-1.778-.554-4.026 1.074-3.103 4.126 2.382 10.904 2.835 13.42 2.919.285 0 2.315.235 2.801.385.503.202 1.275.57 1.275.57 1.023.437 2.868-.972.738-3.572-.554-.89-1.392-1.913-2.382-2.953h47.354V36.804"/><path fill="#8c1515" d="M39.19 9.511 9.55 38.55v83.833l25.23 25.737h23.686c4.042-1.776 4.898-1.624 6.021-3.888.168-.36.335-1.4.352-2.416.05-.288.555-3.344-.922-2.6-2.533 1.272-7.65-2.088-11.475-.088-3.824 1.976-1.023-2.616-.486-3.409 0 0 2.046-2.696 5.133-4.48a1.7 1.7 0 0 0 .301-.2c.303-.168.605-.312.924-.464 2.349-1.096 9.04-5.552 10.249-6.944.721-.808 1.996-2.656 2.047-3.68.217-.888.386-2.296-.469-2.848-1.275-.84-2.3.8-4.295 1.696-1.997.888-3.507 1.256-5.285 1.32-1.71.056-3.355-.6-4.378-.448-1.024.168-1.628-.608.251-2.504.856-.856 1.226-1.24 1.628-1.528 4.463-2.864 8.472-2.896 10.72-7.984 0 0 1.745-4.56-1.627-2.616-1.845 1.072-2.852 2.616-8.137 2.616-5.267 0-7.33 2.504-8.22 3.592 0 0-3.588 5.016-2.7-2.016.907-7.008 2.264-10.584 5.57-13.32 2.85-2.344 9.929-5.496 12.48-8.968 1.307-1.296 4.596-5.056 2.683-8.24-.805-1.342-2.767 2.136-4.796 2.584-2.316.608-5.25 1.36-7.499.904-2.785-.552-4.563.504-5.603.976s-3.003-1.024-.605-3.759c3.22-3.673 11.006-8.47 16.24-11.339.721-.302 2.481-1.074 4.091-2.097a.265.265 0 0 1 .085-.034c.403-.185.99-.538 1.325-.99 1.14-.957 1.93-2.03 1.66-3.12-.234-.99-.722-1.325-2.265-1.493-1.224-.118-3.253 1.308-4.964 1.175-2.617-.219-6.46.385-5.184-1.477 1.19-1.728 3.12-2.836 3.673-3.138 1.074-.486 2.517-1.123 4.647-2.08 3.339-1.51 2.868-5.3 1.577-5.433-2.014-.219-7.448 1.524-3.624-2.836 0 0 1.813-1.828 3.64-3.02 1.443-.838 2.634-1.157 4.06-1.678.89-.318 3.223-2.382-2.314-2.6 0 0-3.087.084-2.5-1.342.487-.939 3.205-2.65 3.205-2.65s2.18-1.494 3.07-2.383c.854-.822 1.458-1.476 1.408-2.214-.034-.838-2.215-1.878-3.138-3.053-.653-.84-.1-1.14.27-1.24.2-.033.436-.068.721-.068 2.248.017 2.885-2.231 4.197-8.069.384-1.745.416-2.113.984-2.13.056 0 .088.017.12.017 0 0 .552 2.952 1.36 6.257.688 1.828 1.44 2.6 2.768 2.583.264 0 .504.033.704.067.368.1.936.404.264 1.242-.504.655-2.008 1.712-2.128 2.35-.432 1.81 1.296 2.465 3.056 2.6 2.496.166 1.456 1.726-1.24 3.722-2.6 1.93 4.056 6.057 4.056 6.057 3.793 2.936 1.088 3.69.32 4.11-.776.402-2.904 1.71-.776 2.549 2.152.822 5.105 3.791 5.105 3.791 3.808 4.36-1.616 2.634-3.625 2.836-1.296.134-1.76 3.94 1.577 5.435 5.08 2.297 6.208 2.684 8 4.026 3.352 2.482 1.576 4.596-2.616 3.858 0 0-2.68-.67-4.56-.302-1.176.218-1.985.486-2.537.772-.288.436-.952 2.163 4.88 3.958 2.785.872 6.24 2.97 9.313 5.369l47.848-.05-.008-38.766-29.64-29.07H39.192zm72.25 94.441c1.377 2.28 2.177 5.265 2.769 9.649.016 2.632-3.456 1.352-4.584.664-.784-.536-1.824-1.032-3.168-1.352-2.536-.608-8.568-3.256-10.216-3.848-1.68-.616-2.904.624-3.104 1.096h.016c-.432.8.456 2.416.456 2.416 2.368 5.368 6.728 5.08 11.52 8.52 6.592 4.696 3.072 5.688 1.712 4.984-1.336-.72-3.552-.272-3.552-.272-5.32 1.464-6.912-.752-10.032-1.576-3.105-.84-.552 3.024.568 4.312 1.192 1.392 7.904 5.856 10.232 6.944 5.088 2.368 7.736 6.208 9.312 11.088 1.496 4.616-.136 3.608-1.344 3.04-1.208-.576-1.56-1.816-4.56-1.744-3.016.064-4.712-.152-6.864-1.848-.568-.44-1.024-.944-1.408-1.36-.032-.016-.048-.032-.064-.048-2.064-1.576-1.664 3.656-1.24 4.512 1.488 3 2.496 1.776 11.088 6.36 4.072 2.176 5.032 5.096 5.464 6.32.688 1.984 1.392 2.552-4.848 1.68-1.992-.272-5.584-1.544-7.296-2.704-1.64-1.136-4.944-.216-4.648 2.248 1.544 3.776 5.504 6.144 9.28 6.608 3.304.424 4.8 1.144 5.4 1.88 1.808 2.064-1.544 5.088-1.544 5.088-1.68 1.944.136 4.224 1.376 4.896 2.016 1.024 5.92 3.369 7.216 6.729 6.776 17.44.216 12.44-2.992 10.448-3.216-2-9.344-7.128-14.928-6.68-5.584.44-7.448.744-10.769-1.896-3.304-2.632-2.984 1.632-2.984 1.632v21.032c.2 4.712 1.072 9.208 4.817 13.016 3.064 3.144 5.4 2.552 9.728 7.84 1.992 2.432 8.504 5.048 12.848 5.096l8.336.016 29.64-29.072v-80.033l-25.208-25.68H111.44zM9.568 175.13l-.016 34.473 29.64 29.088h9.528c8.959-.44 12.313-7.384 15.03-11.656 2.047-3.24 5.671-5.992 7.97-8.344 2.432-2.464 2.868-8.104 2.935-14.208v-12.744l.017.128v-3.048h.017v-2.032h.002v-5.97c0-1.28-1.476-1.376-4.697 2.112-3.238 3.473-8.655 3.185-11.792 3.473-3.137.28-12.162 4.984-14.746 8.352-1.594 2.096-3.858.368-2.936-3.76h-.034c.436-1.856 1.241-4.36 2.533-7.665 1.778-4.608 8.455-7.312 8.455-7.312s.688-.304 1.292-.888H9.567z"/></svg>