<svg xmlns="http://www.w3.org/2000/svg" viewBox="0 0 162 248.02"><path fill="#8c1515" d="M35.87 1.12 1.31 34.96v90.9l30.05 30.67h13.77c-.33.92-.77 2.34.18 3.73 1.04 1.55 2.84 1.55 3.52 1.55.81 0 1.94-.1 3.66-.34h.02s.72.64-1.47 1.36c-1.82.64-3.4 1.7-3.92 3.5-.03.14-.04.28-.08.4H1.33l-.02 46.46 34.56 33.95h90.89l34.56-33.9v-87.08l-30.05-30.61h-25.48a.1.1 0 0 1-.04-.02 103.37 103.37 0 0 1-3.33-2.06l-.4-.25-.06-.04a13.75 13.75 0 0 1-1.82-1.36 10.8 10.8 0 0 1-1.4-1.3l-.1-.1a25.84 25.84 0 0 1-1.71-1.97 45.5 45.5 0 0 0 10.38 1.5h.25l.4.01.17.02c.5.03.9.11 1.14.2.27.1.51.22.73.32l1.07.4a4.09 4.09 0 0 0 4.5-2.33 4.79 4.79 0 0 0 .3-2.83l45.44.03V35L126.76 1.12H35.87z"/><path fill="#fff" d="m157.19 36.8-32.1-31.48H37.54L5.44 36.75v87.39l27.62 28.18 17.82.01c-2 1.8-2.62 3.66-2.94 4.57-.69 2-1.41 2.56 4.85 1.7a22.47 22.47 0 0 0 7.28-2.7c1.66-1.15 4.95-.23 4.66 2.24-1.54 3.77-5.5 6.14-9.28 6.6-8.69 1.1-4.93 4.34-4.93 4.34.96.65 1.65 1.29 2.13 1.86h-4.22v-.02H5.45l-.02 40.48 32.1 31.54h87.56l32.09-31.5v-83.53l-27.63-28.15h-22.33c-1.77-1.19-4.17-2.51-6.35-3.94 0-.02 0-.02-.02-.02a15.9 15.9 0 0 1-2.45-1.77 14.9 14.9 0 0 1-1.74-1.63c-1.93-2.02-3.38-4.11-3.76-5.09-.72-1.77-.56-4.02 1.07-3.1 4.13 2.38 10.9 2.84 13.42 2.92.29 0 2.32.24 2.8.39.5.2 1.28.57 1.28.57 1.02.43 2.87-.98.74-3.58a19.5 19.5 0 0 0-2.39-2.95h47.36V36.8"/><path fill="#8c1515" d="M39.19 9.51 9.55 38.55v83.83l25.23 25.74h23.69c4.04-1.78 4.9-1.62 6.02-3.89.16-.36.33-1.4.35-2.41.05-.3.55-3.35-.92-2.6-2.54 1.27-7.65-2.1-11.48-.1-3.82 1.98-1.02-2.6-.48-3.4 0 0 2.04-2.7 5.13-4.48a1.7 1.7 0 0 0 .3-.2c.3-.17.6-.31.92-.46 2.35-1.1 9.04-5.56 10.25-6.95.72-.8 2-2.65 2.05-3.68.22-.89.39-2.3-.47-2.85-1.27-.84-2.3.8-4.3 1.7-2 .89-3.5 1.26-5.28 1.32-1.7.06-3.35-.6-4.38-.45-1.02.17-1.62-.6.25-2.5.86-.86 1.23-1.24 1.63-1.53 4.47-2.86 8.47-2.9 10.72-7.98 0 0 1.75-4.56-1.62-2.62-1.85 1.07-2.86 2.62-8.14 2.62-5.27 0-7.33 2.5-8.22 3.59 0 0-3.59 5.01-2.7-2.02.9-7 2.26-10.58 5.57-13.32 2.85-2.34 9.93-5.5 12.48-8.97 1.3-1.3 4.6-5.05 2.68-8.24-.8-1.34-2.77 2.14-4.8 2.59-2.31.6-5.24 1.36-7.5.9-2.78-.55-4.56.5-5.6.98s-3-1.03-.6-3.76c3.22-3.67 11-8.47 16.24-11.34.72-.3 2.48-1.07 4.09-2.1a.27.27 0 0 1 .08-.03c.4-.19 1-.54 1.33-1 1.14-.95 1.93-2.02 1.66-3.11-.24-1-.72-1.33-2.27-1.5-1.22-.11-3.25 1.31-4.96 1.18-2.62-.22-6.46.39-5.18-1.48a11.19 11.19 0 0 1 3.67-3.13c1.07-.5 2.52-1.13 4.65-2.08 3.34-1.51 2.86-5.3 1.57-5.44-2.01-.22-7.44 1.53-3.62-2.83 0 0 1.81-1.83 3.64-3.02 1.44-.84 2.63-1.16 4.06-1.68.89-.32 3.22-2.38-2.31-2.6 0 0-3.1.08-2.5-1.34.48-.94 3.2-2.65 3.2-2.65s2.18-1.5 3.07-2.39c.85-.82 1.46-1.47 1.4-2.21-.03-.84-2.2-1.88-3.13-3.05-.65-.84-.1-1.14.27-1.24.2-.04.44-.07.72-.07 2.25.02 2.89-2.23 4.2-8.07.38-1.75.41-2.11.98-2.13l.12.02s.55 2.95 1.36 6.25c.69 1.83 1.44 2.6 2.77 2.59.26 0 .5.03.7.06.37.1.94.4.27 1.25-.5.65-2.01 1.7-2.13 2.35-.43 1.8 1.3 2.46 3.06 2.6 2.5.16 1.45 1.72-1.24 3.72-2.6 1.93 4.05 6.05 4.05 6.05 3.8 2.94 1.09 3.7.32 4.11-.77.4-2.9 1.71-.77 2.55 2.15.83 5.1 3.8 5.1 3.8 3.8 4.35-1.61 2.63-3.62 2.83-1.3.13-1.76 3.94 1.57 5.44 5.08 2.3 6.21 2.68 8 4.02 3.35 2.48 1.58 4.6-2.61 3.86 0 0-2.68-.67-4.56-.3a9.3 9.3 0 0 0-2.54.77c-.29.44-.95 2.16 4.88 3.96 2.78.87 6.24 2.97 9.31 5.37l47.85-.05V38.58L123.42 9.51H39.2zm72.25 94.44c1.38 2.28 2.18 5.27 2.77 9.65.02 2.63-3.46 1.35-4.58.67a9.45 9.45 0 0 0-3.17-1.36c-2.54-.6-8.57-3.25-10.22-3.84a2.56 2.56 0 0 0-3.1 1.1h.01c-.43.8.46 2.4.46 2.4 2.37 5.38 6.73 5.09 11.52 8.53 6.6 4.7 3.07 5.68 1.71 4.98-1.33-.72-3.55-.27-3.55-.27-5.32 1.46-6.91-.75-10.03-1.58-3.1-.84-.56 3.03.56 4.31 1.2 1.4 7.9 5.86 10.24 6.95 5.08 2.37 7.73 6.2 9.3 11.09 1.5 4.61-.13 3.6-1.33 3.04-1.21-.58-1.56-1.82-4.56-1.75-3.02.07-4.72-.15-6.87-1.85-.57-.44-1.02-.94-1.4-1.36-.04-.01-.06-.03-.07-.04-2.06-1.58-1.66 3.65-1.24 4.5 1.49 3 2.5 1.78 11.09 6.37 4.07 2.17 5.03 5.1 5.46 6.32.69 1.98 1.4 2.55-4.85 1.68a22.14 22.14 0 0 1-7.3-2.7c-1.63-1.14-4.94-.22-4.64 2.24 1.54 3.78 5.5 6.15 9.28 6.61 3.3.42 4.8 1.14 5.4 1.88 1.8 2.06-1.54 5.09-1.54 5.09-1.68 1.94.13 4.22 1.37 4.9 2.02 1.02 5.92 3.36 7.22 6.72 6.77 17.44.21 12.44-3 10.45-3.21-2-9.34-7.13-14.92-6.68-5.59.44-7.45.75-10.77-1.9-3.3-2.63-2.99 1.64-2.99 1.64v21.03c.2 4.71 1.08 9.2 4.82 13.02 3.07 3.14 5.4 2.55 9.73 7.84 2 2.43 8.5 5.04 12.85 5.1h8.33l29.64-29.06v-80.04l-25.2-25.68h-16.43zM9.57 175.13l-.02 34.47 29.64 29.1h9.53c8.96-.45 12.31-7.4 15.03-11.66 2.05-3.24 5.67-6 7.97-8.35 2.43-2.46 2.87-8.1 2.94-14.2v-12.75l.01.13v-3.05h.02v-8c0-1.28-1.48-1.38-4.7 2.1-3.23 3.48-8.65 3.2-11.79 3.48-3.14.28-12.16 4.99-14.74 8.35-1.6 2.1-3.86.37-2.94-3.76h-.03a59.31 59.31 0 0 1 2.53-7.66c1.78-4.6 8.45-7.31 8.45-7.31s.7-.3 1.3-.9H9.57z"/></svg>